<mxfile host="app.diagrams.net" agent="Mozilla/5.0 (Windows NT 10.0; Win64; x64) AppleWebKit/537.36 (KHTML, like Gecko) Chrome/134.0.0.0 Safari/537.36" version="26.1.3">
  <diagram id="23iRSUPoRavnBvh4doch" name="Page-1">
    <mxGraphModel dx="1450" dy="957" grid="1" gridSize="10" guides="1" tooltips="1" connect="1" arrows="1" fold="1" page="0" pageScale="1" pageWidth="827" pageHeight="1169" math="0" shadow="0">
      <root>
        <mxCell id="0" />
        <mxCell id="1" parent="0" />
        <mxCell id="SIIk8edncTG2XRunnKmC-1" value="" style="rounded=1;whiteSpace=wrap;html=1;arcSize=2;" vertex="1" parent="1">
          <mxGeometry x="20" y="-130" width="320" height="590" as="geometry" />
        </mxCell>
        <mxCell id="SIIk8edncTG2XRunnKmC-16" style="rounded=0;orthogonalLoop=1;jettySize=auto;html=1;entryX=0;entryY=0.5;entryDx=0;entryDy=0;endArrow=none;startFill=0;" edge="1" parent="1" source="SIIk8edncTG2XRunnKmC-2" target="SIIk8edncTG2XRunnKmC-7">
          <mxGeometry relative="1" as="geometry" />
        </mxCell>
        <mxCell id="SIIk8edncTG2XRunnKmC-18" style="rounded=0;orthogonalLoop=1;jettySize=auto;html=1;entryX=0;entryY=0.5;entryDx=0;entryDy=0;endArrow=none;startFill=0;" edge="1" parent="1" source="SIIk8edncTG2XRunnKmC-2" target="SIIk8edncTG2XRunnKmC-8">
          <mxGeometry relative="1" as="geometry" />
        </mxCell>
        <mxCell id="SIIk8edncTG2XRunnKmC-2" value="Guest" style="shape=umlActor;verticalLabelPosition=bottom;verticalAlign=top;html=1;outlineConnect=0;" vertex="1" parent="1">
          <mxGeometry x="-160" y="10" width="30" height="60" as="geometry" />
        </mxCell>
        <mxCell id="SIIk8edncTG2XRunnKmC-19" style="rounded=0;orthogonalLoop=1;jettySize=auto;html=1;entryX=0;entryY=0.5;entryDx=0;entryDy=0;endArrow=none;startFill=0;" edge="1" parent="1" source="SIIk8edncTG2XRunnKmC-3" target="SIIk8edncTG2XRunnKmC-7">
          <mxGeometry relative="1" as="geometry" />
        </mxCell>
        <mxCell id="SIIk8edncTG2XRunnKmC-20" style="rounded=0;orthogonalLoop=1;jettySize=auto;html=1;entryX=0;entryY=0.5;entryDx=0;entryDy=0;endArrow=none;startFill=0;" edge="1" parent="1" source="SIIk8edncTG2XRunnKmC-3" target="SIIk8edncTG2XRunnKmC-8">
          <mxGeometry relative="1" as="geometry" />
        </mxCell>
        <mxCell id="SIIk8edncTG2XRunnKmC-21" style="rounded=0;orthogonalLoop=1;jettySize=auto;html=1;entryX=0;entryY=0.5;entryDx=0;entryDy=0;endArrow=none;startFill=0;" edge="1" parent="1" source="SIIk8edncTG2XRunnKmC-3" target="SIIk8edncTG2XRunnKmC-11">
          <mxGeometry relative="1" as="geometry" />
        </mxCell>
        <mxCell id="SIIk8edncTG2XRunnKmC-3" value="User" style="shape=umlActor;verticalLabelPosition=bottom;verticalAlign=top;html=1;outlineConnect=0;" vertex="1" parent="1">
          <mxGeometry x="-160" y="175" width="30" height="60" as="geometry" />
        </mxCell>
        <mxCell id="SIIk8edncTG2XRunnKmC-23" style="rounded=0;orthogonalLoop=1;jettySize=auto;html=1;entryX=1;entryY=0.5;entryDx=0;entryDy=0;endArrow=none;startFill=0;" edge="1" parent="1" source="SIIk8edncTG2XRunnKmC-4" target="SIIk8edncTG2XRunnKmC-7">
          <mxGeometry relative="1" as="geometry" />
        </mxCell>
        <mxCell id="SIIk8edncTG2XRunnKmC-25" style="rounded=0;orthogonalLoop=1;jettySize=auto;html=1;entryX=1;entryY=0.5;entryDx=0;entryDy=0;endArrow=none;startFill=0;" edge="1" parent="1" source="SIIk8edncTG2XRunnKmC-4" target="SIIk8edncTG2XRunnKmC-8">
          <mxGeometry relative="1" as="geometry" />
        </mxCell>
        <mxCell id="SIIk8edncTG2XRunnKmC-26" style="rounded=0;orthogonalLoop=1;jettySize=auto;html=1;entryX=1;entryY=0.5;entryDx=0;entryDy=0;endArrow=none;startFill=0;" edge="1" parent="1" source="SIIk8edncTG2XRunnKmC-32" target="SIIk8edncTG2XRunnKmC-12">
          <mxGeometry relative="1" as="geometry" />
        </mxCell>
        <mxCell id="SIIk8edncTG2XRunnKmC-27" style="rounded=0;orthogonalLoop=1;jettySize=auto;html=1;entryX=1;entryY=0.5;entryDx=0;entryDy=0;endArrow=none;startFill=0;" edge="1" parent="1" source="SIIk8edncTG2XRunnKmC-4" target="SIIk8edncTG2XRunnKmC-14">
          <mxGeometry relative="1" as="geometry" />
        </mxCell>
        <mxCell id="SIIk8edncTG2XRunnKmC-28" style="rounded=0;orthogonalLoop=1;jettySize=auto;html=1;entryX=1;entryY=0.5;entryDx=0;entryDy=0;endArrow=none;startFill=0;" edge="1" parent="1" source="SIIk8edncTG2XRunnKmC-32" target="SIIk8edncTG2XRunnKmC-15">
          <mxGeometry relative="1" as="geometry" />
        </mxCell>
        <mxCell id="SIIk8edncTG2XRunnKmC-31" style="rounded=0;orthogonalLoop=1;jettySize=auto;html=1;entryX=1;entryY=0.5;entryDx=0;entryDy=0;endArrow=none;startFill=0;" edge="1" parent="1" source="SIIk8edncTG2XRunnKmC-4" target="SIIk8edncTG2XRunnKmC-30">
          <mxGeometry relative="1" as="geometry" />
        </mxCell>
        <mxCell id="SIIk8edncTG2XRunnKmC-4" value="Admin" style="shape=umlActor;verticalLabelPosition=bottom;verticalAlign=top;html=1;outlineConnect=0;" vertex="1" parent="1">
          <mxGeometry x="520" y="30" width="30" height="60" as="geometry" />
        </mxCell>
        <mxCell id="SIIk8edncTG2XRunnKmC-7" value="View journals" style="ellipse;whiteSpace=wrap;html=1;" vertex="1" parent="1">
          <mxGeometry x="40" y="-110" width="280" height="50" as="geometry" />
        </mxCell>
        <mxCell id="SIIk8edncTG2XRunnKmC-8" value="Read journal articles" style="ellipse;whiteSpace=wrap;html=1;" vertex="1" parent="1">
          <mxGeometry x="40" y="-38" width="280" height="50" as="geometry" />
        </mxCell>
        <mxCell id="SIIk8edncTG2XRunnKmC-38" style="rounded=0;orthogonalLoop=1;jettySize=auto;html=1;entryX=0.5;entryY=0;entryDx=0;entryDy=0;dashed=1;endArrow=open;endFill=0;" edge="1" parent="1" source="SIIk8edncTG2XRunnKmC-11" target="SIIk8edncTG2XRunnKmC-35">
          <mxGeometry relative="1" as="geometry" />
        </mxCell>
        <mxCell id="SIIk8edncTG2XRunnKmC-11" value="Submit journal article" style="ellipse;whiteSpace=wrap;html=1;" vertex="1" parent="1">
          <mxGeometry x="40" y="35" width="280" height="50" as="geometry" />
        </mxCell>
        <mxCell id="SIIk8edncTG2XRunnKmC-12" value="Review submitted journal" style="ellipse;whiteSpace=wrap;html=1;" vertex="1" parent="1">
          <mxGeometry x="40" y="320" width="280" height="50" as="geometry" />
        </mxCell>
        <mxCell id="SIIk8edncTG2XRunnKmC-14" value="Publish journal&amp;nbsp;" style="ellipse;whiteSpace=wrap;html=1;" vertex="1" parent="1">
          <mxGeometry x="40" y="180" width="280" height="50" as="geometry" />
        </mxCell>
        <mxCell id="SIIk8edncTG2XRunnKmC-15" value="Publish submitted article to the journal" style="ellipse;whiteSpace=wrap;html=1;" vertex="1" parent="1">
          <mxGeometry x="40" y="390" width="280" height="50" as="geometry" />
        </mxCell>
        <mxCell id="SIIk8edncTG2XRunnKmC-30" value="Add reviewer to the journal" style="ellipse;whiteSpace=wrap;html=1;" vertex="1" parent="1">
          <mxGeometry x="40" y="250" width="280" height="50" as="geometry" />
        </mxCell>
        <mxCell id="SIIk8edncTG2XRunnKmC-33" style="rounded=0;orthogonalLoop=1;jettySize=auto;html=1;entryX=1;entryY=0.5;entryDx=0;entryDy=0;endArrow=none;startFill=0;" edge="1" parent="1" source="SIIk8edncTG2XRunnKmC-32" target="SIIk8edncTG2XRunnKmC-7">
          <mxGeometry relative="1" as="geometry" />
        </mxCell>
        <mxCell id="SIIk8edncTG2XRunnKmC-34" style="rounded=0;orthogonalLoop=1;jettySize=auto;html=1;entryX=1;entryY=0.5;entryDx=0;entryDy=0;endArrow=none;startFill=0;" edge="1" parent="1" source="SIIk8edncTG2XRunnKmC-32" target="SIIk8edncTG2XRunnKmC-8">
          <mxGeometry relative="1" as="geometry" />
        </mxCell>
        <mxCell id="SIIk8edncTG2XRunnKmC-32" value="Reviewer" style="shape=umlActor;verticalLabelPosition=bottom;verticalAlign=top;html=1;outlineConnect=0;" vertex="1" parent="1">
          <mxGeometry x="520" y="260" width="30" height="60" as="geometry" />
        </mxCell>
        <mxCell id="SIIk8edncTG2XRunnKmC-35" value="Register or Login" style="ellipse;whiteSpace=wrap;html=1;" vertex="1" parent="1">
          <mxGeometry x="180" y="110" width="150" height="50" as="geometry" />
        </mxCell>
      </root>
    </mxGraphModel>
  </diagram>
</mxfile>
